<?xml version="1.0" encoding="iso-8859-1"?>
<!-- Generator: Adobe Illustrator 19.0.0, SVG Export Plug-In . SVG Version: 6.00 Build 0)  -->
<svg version="1.1" id="Layer_1" xmlns="http://www.w3.org/2000/svg" xmlns:xlink="http://www.w3.org/1999/xlink" x="0px" y="0px"
	 viewBox="0 0 512 512" style="enable-background:new 0 0 512 512;" xml:space="preserve">
<g>
	<path style="fill:#2D527C;" d="M164.805,303.984c-8.057,0-14.591-6.532-14.591-14.591V150.776c0-8.059,6.534-14.591,14.591-14.591
		h182.389c8.057,0,14.591,6.532,14.591,14.591v51.966c0,8.059-6.534,14.591-14.591,14.591s-14.591-6.532-14.591-14.591v-37.375
		H179.396v124.026C179.396,297.452,172.863,303.984,164.805,303.984z"/>
	<path style="fill:#2D527C;" d="M387.319,512h-262.64c-4.342,0-8.458-1.933-11.229-5.276c-2.772-3.341-3.913-7.745-3.111-12.011
		l43.778-232.821c1.49-7.92,9.124-13.136,17.037-11.642c7.92,1.49,13.133,9.117,11.644,17.037L142.27,482.818h227.241
		l-18.388-91.653c-1.585-7.901,3.535-15.591,11.437-17.175c7.892-1.583,15.592,3.534,17.175,11.437l21.89,109.114
		c0.861,4.287-0.248,8.734-3.019,12.116C395.835,510.039,391.692,512,387.319,512z"/>
	<path style="fill:#2D527C;" d="M423.84,512H88.16c-8.057,0-14.591-6.532-14.591-14.591s6.534-14.591,14.591-14.591h335.68
		c8.057,0,14.591,6.532,14.591,14.591S431.897,512,423.84,512z"/>
</g>
<path style="fill:#CEE8FA;" d="M361.785,322.954H150.214c-16.05,0-29.182-13.132-29.182-29.182l0,0
	c0-16.05,13.132-29.182,29.182-29.182h211.571c16.05,0,29.182,13.132,29.182,29.182l0,0
	C390.967,309.822,377.835,322.954,361.785,322.954z"/>
<path style="fill:#2D527C;" d="M361.785,337.544H150.214c-24.137,0-43.773-19.637-43.773-43.773
	c0-24.137,19.637-43.773,43.773-43.773h211.571c24.137,0,43.773,19.637,43.773,43.773
	C405.558,317.907,385.922,337.544,361.785,337.544z M150.214,279.179c-8.046,0-14.591,6.546-14.591,14.591
	c0,8.046,6.546,14.591,14.591,14.591h211.571c8.046,0,14.591-6.546,14.591-14.591c0-8.046-6.546-14.591-14.591-14.591H150.214z"/>
<path style="fill:#CEE8FA;" d="M343.06,36.794L343.06,36.794c0,12.262-9.941,22.203-22.203,22.203h-3.744
	c-12.262,0-22.203-9.941-22.203-22.203l0,0c0-12.262-9.941-22.203-22.203-22.203h-33.412c-12.262,0-22.203,9.941-22.203,22.203l0,0
	c0,12.262-9.941,22.203-22.203,22.203h-3.744c-12.262,0-22.203-9.941-22.203-22.203l0,0c0-12.262-9.941-22.203-22.203-22.203h-7.634
	c-16.024,0-29.013,12.989-29.013,29.013v76.22c0,27.303,22.133,49.436,49.436,49.436h199.76c23.543,0,42.627-19.085,42.627-42.627
	V43.604c0-16.024-12.989-29.013-29.013-29.013h-7.634C353.001,14.591,343.06,24.532,343.06,36.794z"/>
<path style="fill:#2D527C;" d="M359.284,183.851h-199.76c-35.305,0-64.027-28.723-64.027-64.027v-76.22
	C95.497,19.561,115.058,0,139.101,0h7.634c20.288,0,36.794,16.507,36.794,36.794c0,4.198,3.416,7.612,7.614,7.612h3.743
	c4.198,0,7.612-3.414,7.612-7.612C202.498,16.507,219.005,0,239.294,0h33.411c20.289,0,36.796,16.507,36.796,36.794
	c0,4.198,3.414,7.612,7.612,7.612h3.743c4.198,0,7.614-3.414,7.614-7.612C328.469,16.507,344.976,0,365.264,0h7.634
	c24.043,0,43.604,19.561,43.604,43.604v83.029C416.502,158.184,390.835,183.851,359.284,183.851z M139.101,29.182
	c-7.952,0-14.422,6.47-14.422,14.422v76.22c0,19.214,15.631,34.845,34.845,34.845h199.76c15.459,0,28.035-12.576,28.035-28.035
	v-83.03c0-7.952-6.47-14.422-14.422-14.422h-7.634c-4.198,0-7.612,3.414-7.612,7.612c0,20.289-16.507,36.794-36.796,36.794h-3.743
	c-20.288,0-36.794-16.507-36.794-36.794c0-4.198-3.416-7.612-7.614-7.612h-33.411c-4.198,0-7.614,3.414-7.614,7.612
	c0,20.289-16.507,36.794-36.794,36.794h-3.743c-20.289,0-36.796-16.507-36.796-36.794c0-4.198-3.414-7.612-7.612-7.612H139.101z"/>
<g>
</g>
<g>
</g>
<g>
</g>
<g>
</g>
<g>
</g>
<g>
</g>
<g>
</g>
<g>
</g>
<g>
</g>
<g>
</g>
<g>
</g>
<g>
</g>
<g>
</g>
<g>
</g>
<g>
</g>
</svg>
