<?xml version="1.0" encoding="iso-8859-1"?>
<!-- Generator: Adobe Illustrator 19.0.0, SVG Export Plug-In . SVG Version: 6.00 Build 0)  -->
<svg version="1.1" id="Layer_1" xmlns="http://www.w3.org/2000/svg" xmlns:xlink="http://www.w3.org/1999/xlink" x="0px" y="0px"
	 viewBox="0 0 512 512" style="enable-background:new 0 0 512 512;" xml:space="preserve">
<g>
	<path style="fill:#2D527C;" d="M407.393,321.395c-5.295,0-10.57-0.638-15.676-1.896c-7.08-1.743-11.406-8.895-9.662-15.974
		c1.744-7.078,8.9-11.404,15.974-9.662c3.044,0.749,6.194,1.129,9.365,1.129c10.926,0,21.053-4.402,28.514-12.396
		c7.452-7.984,11.139-18.423,10.381-29.393c-1.283-18.601-16.199-34.07-34.697-35.98c-11.138-1.145-21.814,2.268-30.086,9.619
		c-8.822,7.844-20.34,12.592-32.432,13.37c-7.309,0.442-13.555-5.051-14.021-12.327c-0.467-7.276,5.052-13.553,12.327-14.021
		c6.248-0.401,12.138-2.8,16.584-6.754c13.873-12.332,31.749-18.061,50.339-16.15c31.097,3.213,56.172,29.19,58.326,60.424
		c1.266,18.349-4.921,35.832-17.421,49.225C442.878,313.82,425.452,321.395,407.393,321.395z"/>
	<path style="fill:#2D527C;" d="M322.357,400.639H74.249c-19.321,0-35.038-15.717-35.038-35.038v-72.788
		c0-4.944,2.762-9.473,7.156-11.736c4.396-2.263,9.685-1.882,13.71,0.987c1.559,1.113,2.925,2.185,4.175,3.28
		c7.101,6.22,16.217,9.646,25.67,9.646c10.925,0,21.051-4.402,28.512-12.396c7.453-7.985,11.14-18.423,10.382-29.394
		c-1.283-18.601-16.199-34.069-34.697-35.979c-11.028-1.145-21.916,2.355-30.085,9.619c-1.175,1.044-2.421,2.047-3.812,3.068
		c-4.012,2.945-9.337,3.386-13.776,1.137c-4.439-2.248-7.237-6.801-7.237-11.778v-72.874c0-19.321,15.717-35.038,35.038-35.038
		h248.107c19.321,0,35.038,15.717,35.038,35.038v219.203C357.395,384.922,341.677,400.639,322.357,400.639z M65.614,316.711v48.891
		c0,4.762,3.874,8.636,8.636,8.636h248.107c4.762,0,8.636-3.874,8.636-8.636V146.398c0-4.762-3.874-8.636-8.636-8.636H74.249
		c-4.762,0-8.636,3.874-8.636,8.636v48.888c9.749-3.903,20.497-5.432,31.219-4.323c31.097,3.213,56.171,29.188,58.326,60.423
		c1.266,18.35-4.921,35.834-17.421,49.226c-12.327,13.207-29.755,20.782-47.813,20.782C81.524,321.395,73.281,319.78,65.614,316.711
		z"/>
</g>
<path style="fill:#CEE8FA;" d="M202.007,498.671c25.045-1.728,45.622-21.54,48.201-46.512c1.597-15.461-3.563-29.727-12.884-40.212
	c-6.087-6.847-9.485-15.522-10.062-24.51h-58.068c-0.655,9.082-4.071,17.838-10.17,24.8c-8.042,9.18-12.916,21.204-12.916,34.368
	C146.109,476.657,171.506,500.777,202.007,498.671z"/>
<path style="fill:#2D527C;" d="M198.308,512c-0.003,0-0.004,0-0.007,0c-36.057-0.003-65.392-29.339-65.392-65.394
	c0-15.854,5.748-31.149,16.186-43.065c4.067-4.644,6.464-10.538,6.933-17.05c0.498-6.904,6.244-12.253,13.168-12.253h58.066
	c6.961,0,12.728,5.407,13.173,12.353c0.401,6.247,2.8,12.137,6.755,16.584c12.335,13.875,18.069,31.753,16.149,50.34
	c-3.212,31.095-29.187,56.169-60.423,58.326C201.384,511.947,199.833,512,198.308,512z M180.142,400.639
	c-2.234,7.507-6.012,14.388-11.188,20.298c-6.219,7.101-9.645,16.216-9.645,25.669c0,21.499,17.492,38.991,38.993,38.993
	c0.001,0,0.001,0,0.003,0c0.921,0,1.861-0.032,2.792-0.096c18.601-1.284,34.07-16.2,35.979-34.698
	c1.15-11.131-2.267-21.814-9.618-30.086c-5.109-5.746-8.904-12.633-11.144-20.078h-36.172V400.639z"/>
<path style="fill:#CEE8FA;" d="M194.599,13.329c-25.045,1.728-45.622,21.54-48.201,46.512c-1.597,15.461,3.563,29.727,12.884,40.212
	c6.087,6.847,9.485,15.522,10.062,24.51h58.068c0.655-9.082,4.071-17.838,10.17-24.8c8.042-9.18,12.916-21.204,12.916-34.368
	C250.496,35.343,225.1,11.223,194.599,13.329z"/>
<path style="fill:#2D527C;" d="M227.412,137.762h-58.068c-6.961,0-12.728-5.407-13.173-12.353c-0.401-6.248-2.8-12.138-6.754-16.584
	c-12.335-13.875-18.069-31.753-16.149-50.34c3.212-31.095,29.187-56.169,60.423-58.326C195.224,0.053,196.777,0,198.305,0
	c36.057,0,65.393,29.336,65.393,65.394c0,15.855-5.748,31.15-16.187,43.065c-4.066,4.644-6.463,10.538-6.932,17.05
	C240.081,132.415,234.334,137.762,227.412,137.762z M180.292,111.361h36.172c2.234-7.507,6.01-14.386,11.186-20.296
	c6.22-7.102,9.646-16.217,9.646-25.67c0-21.5-17.491-38.993-38.991-38.993c-0.925,0-1.865,0.032-2.796,0.096
	c-18.601,1.284-34.07,16.2-35.979,34.698c-1.15,11.131,2.267,21.814,9.618,30.086C174.256,97.027,178.051,103.915,180.292,111.361z"
	/>
<g>
</g>
<g>
</g>
<g>
</g>
<g>
</g>
<g>
</g>
<g>
</g>
<g>
</g>
<g>
</g>
<g>
</g>
<g>
</g>
<g>
</g>
<g>
</g>
<g>
</g>
<g>
</g>
<g>
</g>
</svg>
